# xmcd
#
# Track frame offsets:
#	150
#	16666
#	35109
#	50059
#	66872
#	84063
#	103542
#	118658
#	135330
#	154267
#
# Disc length: 2269 seconds
#
# Revision: 0
# Processed by: cddbd v1.5.2PL0 Copyright (c) Steve Scherf et al.
# Submitted via: dBpowerAMP V4.0
#
DISCID=7908db0a
DTITLE=Larkin Gayl - Two Hands
DYEAR=2008
DGENRE=Songwriter
TTITLE0=Warrior
TTITLE1=Impossible
TTITLE2=A life of Everything
TTITLE3=Two Hands
TTITLE4=I do
TTITLE5=Iona Natalia
TTITLE6=Penelope
TTITLE7=Never Mind
TTITLE8=Take me
TTITLE9=Back to the beginning
EXTD=
EXTT0=
EXTT1=
EXTT2=
EXTT3=
EXTT4=
EXTT5=
EXTT6=
EXTT7=
EXTT8=
EXTT9=
PLAYORDER=
